<svg width="40" height="40" viewBox="0 0 40 40" fill="none" xmlns="http://www.w3.org/2000/svg">
<path d="M6.66669 6.66675H10.1051C10.8551 6.66675 11.2301 6.66675 11.5013 6.87854C11.7726 7.09034 11.8635 7.45412 12.0454 8.18168L12.5759 10.3036C12.9397 11.7587 13.1216 12.4862 13.6641 12.9098C14.2066 13.3334 14.9566 13.3334 16.4565 13.3334H16.6667" stroke="#545454" stroke-width="2" stroke-linecap="round"/>
<path d="M30 28.3333H12.5848C11.4981 28.3333 10.9548 28.3333 10.6585 28.0179C10.5993 27.9548 10.5485 27.8844 10.5074 27.8082C10.3019 27.4275 10.4737 26.912 10.8174 25.8811V25.8811C11.1961 24.7448 11.3855 24.1767 11.8044 23.8166C11.891 23.7422 11.9837 23.6754 12.0816 23.6168C12.5558 23.3333 13.1546 23.3333 14.3523 23.3333H23.3333" stroke="#545454" stroke-width="2" stroke-linecap="round" stroke-linejoin="round"/>
<path d="M27.0973 23.3333H15.0276C14.0499 23.3333 13.2155 22.6264 13.0548 21.662L11.9578 15.0799C11.8054 14.1656 12.5105 13.3333 13.4374 13.3333H31.7153C32.4587 13.3333 32.9422 14.1156 32.6097 14.7805L28.8861 22.2277C28.5474 22.9052 27.8548 23.3333 27.0973 23.3333Z" stroke="#545454" stroke-width="2" stroke-linecap="round"/>
<ellipse cx="28.3334" cy="33.3334" rx="1.66667" ry="1.66667" fill="white" stroke="#545454" stroke-width="2" stroke-linecap="round"/>
<ellipse cx="15" cy="33.3334" rx="1.66667" ry="1.66667" fill="white" stroke="#545454" stroke-width="2" stroke-linecap="round"/>
</svg>
