<svg width="40" height="40" viewBox="0 0 40 40" fill="none" xmlns="http://www.w3.org/2000/svg">
<path d="M6.66666 20.4521C6.66666 18.055 6.66666 16.8565 7.15677 15.803C7.64688 14.7495 8.56731 13.9695 10.4082 12.4095L12.1939 10.8962C15.5212 8.07658 17.1849 6.66675 19.1667 6.66675C21.1484 6.66675 22.8121 8.07658 26.1394 10.8962L27.9251 12.4095C29.766 13.9695 30.6864 14.7495 31.1765 15.803C31.6667 16.8565 31.6667 18.055 31.6667 20.4521V27.9383C31.6667 31.2672 31.6667 32.9317 30.6206 33.9659C29.5746 35.0001 27.891 35.0001 24.5238 35.0001H13.8095C10.4423 35.0001 8.75875 35.0001 7.7127 33.9659C6.66666 32.9317 6.66666 31.2672 6.66666 27.9383V20.4521Z" stroke="#545454" stroke-width="2"/>
<path d="M23.3333 34.9999V24.3333C23.3333 23.781 22.8856 23.3333 22.3333 23.3333H16C15.4477 23.3333 15 23.781 15 24.3333V34.9999" stroke="#545454" stroke-width="2" stroke-linecap="round" stroke-linejoin="round"/>
</svg>
