<svg width="40" height="40" viewBox="0 0 40 40" fill="none" xmlns="http://www.w3.org/2000/svg">
<path d="M8.33333 13.3334V29.3334C8.33333 31.219 8.33333 32.1618 8.91912 32.7476C9.50491 33.3334 10.4477 33.3334 12.3333 33.3334H27.6667C29.5523 33.3334 30.4951 33.3334 31.0809 32.7476C31.6667 32.1618 31.6667 31.219 31.6667 29.3334V13.3334M8.33333 13.3334H31.6667M8.33333 13.3334H5.4C5.21144 13.3334 5.11716 13.3334 5.05858 13.2748C5 13.2163 5 13.122 5 12.9334V10.6667C5 8.78113 5 7.83832 5.58579 7.25253C6.17157 6.66675 7.11438 6.66675 9 6.66675H31C32.8856 6.66675 33.8284 6.66675 34.4142 7.25253C35 7.83832 35 8.78113 35 10.6667V12.9334C35 13.122 35 13.2163 34.9414 13.2748C34.8828 13.3334 34.7886 13.3334 34.6 13.3334H31.6667" stroke="#545454" stroke-width="2"/>
<path d="M16.6667 26.6667H23.3334" stroke="#545454" stroke-width="2" stroke-linecap="round"/>
</svg>
